{
  "accessors": [
    {
      "bufferView": 0,
      "componentType": 5126,
      "count": 5911,
      "max": [
        0.3003319799900055,
        0.3440415859222412,
        0.9999994039535522
      ],
      "min": [
        -0.3003329932689667,
        -0.30511200428009033,
        -1.0
      ],
      "type": "VEC3"
    },
    {
      "bufferView": 1,
      "componentType": 5125,
      "count": 12650,
      "type": "SCALAR"
    },
    {
      "bufferView": 2,
      "componentType": 5126,
      "count": 5911,
      "type": "VEC3"
    },
    {
      "bufferView": 3,
      "componentType": 5126,
      "count": 5911,
      "type": "VEC4"
    },
    {
      "bufferView": 4,
      "componentType": 5126,
      "count": 5911,
      "type": "VEC2"
    },
    {
      "bufferView": 5,
      "componentType": 5126,
      "count": 5911,
      "max": [
        0.3003319799900055,
        0.3440415859222412,
        0.9999994039535522
      ],
      "min": [
        -0.3003329932689667,
        -0.30511200428009033,
        -1.0
      ],
      "type": "VEC3"
    },
    {
      "bufferView": 6,
      "componentType": 5123,
      "count": 372,
      "type": "SCALAR"
    },
    {
      "bufferView": 7,
      "componentType": 5126,
      "count": 5911,
      "type": "VEC3"
    },
    {
      "bufferView": 8,
      "componentType": 5126,
      "count": 5911,
      "type": "VEC4"
    },
    {
      "bufferView": 9,
      "componentType": 5126,
      "count": 5911,
      "type": "VEC2"
    },
    {
      "bufferView": 10,
      "componentType": 5126,
      "count": 1550,
      "max": [
        0.08957645297050476,
        0.051868222653865814,
        0.6403167247772217
      ],
      "min": [
        -0.08328410238027573,
        -0.34404000639915466,
        -0.2564760148525238
      ],
      "type": "VEC3"
    },
    {
      "bufferView": 11,
      "componentType": 5125,
      "count": 2664,
      "type": "SCALAR"
    },
    {
      "bufferView": 12,
      "componentType": 5126,
      "count": 1550,
      "type": "VEC3"
    },
    {
      "bufferView": 13,
      "componentType": 5126,
      "count": 1550,
      "type": "VEC4"
    },
    {
      "bufferView": 14,
      "componentType": 5126,
      "count": 1550,
      "type": "VEC2"
    },
    {
      "bufferView": 15,
      "componentType": 5126,
      "count": 1550,
      "max": [
        0.08957645297050476,
        0.051868222653865814,
        0.6403167247772217
      ],
      "min": [
        -0.08328410238027573,
        -0.34404000639915466,
        -0.2564760148525238
      ],
      "type": "VEC3"
    },
    {
      "bufferView": 16,
      "componentType": 5123,
      "count": 249,
      "type": "SCALAR"
    },
    {
      "bufferView": 17,
      "componentType": 5126,
      "count": 1550,
      "type": "VEC3"
    },
    {
      "bufferView": 18,
      "componentType": 5126,
      "count": 1550,
      "type": "VEC4"
    },
    {
      "bufferView": 19,
      "componentType": 5126,
      "count": 1550,
      "type": "VEC2"
    },
    {
      "bufferView": 20,
      "componentType": 5126,
      "count": 1094,
      "max": [
        0.08786741644144058,
        0.1745501607656479,
        0.6311664581298828
      ],
      "min": [
        -0.07053939998149872,
        -0.23656100034713745,
        -0.48876699805259705
      ],
      "type": "VEC3"
    },
    {
      "bufferView": 21,
      "componentType": 5125,
      "count": 2603,
      "type": "SCALAR"
    },
    {
      "bufferView": 22,
      "componentType": 5126,
      "count": 1094,
      "type": "VEC3"
    },
    {
      "bufferView": 23,
      "componentType": 5126,
      "count": 1094,
      "type": "VEC4"
    },
    {
      "bufferView": 24,
      "componentType": 5126,
      "count": 1094,
      "type": "VEC2"
    },
    {
      "bufferView": 25,
      "componentType": 5126,
      "count": 1094,
      "max": [
        0.08786741644144058,
        0.1745501607656479,
        0.6311664581298828
      ],
      "min": [
        -0.07053939998149872,
        -0.23656100034713745,
        -0.48876699805259705
      ],
      "type": "VEC3"
    },
    {
      "bufferView": 26,
      "componentType": 5123,
      "count": 177,
      "type": "SCALAR"
    },
    {
      "bufferView": 27,
      "componentType": 5126,
      "count": 1094,
      "type": "VEC3"
    },
    {
      "bufferView": 28,
      "componentType": 5126,
      "count": 1094,
      "type": "VEC4"
    },
    {
      "bufferView": 29,
      "componentType": 5126,
      "count": 1094,
      "type": "VEC2"
    }
  ],
  "asset": {
    "version": "2.0"
  },
  "bufferViews": [
    {
      "buffer": 0,
      "byteLength": 70932,
      "target": 34962
    },
    {
      "buffer": 1,
      "byteLength": 50600,
      "target": 34963
    },
    {
      "buffer": 2,
      "byteLength": 70932,
      "target": 34962
    },
    {
      "buffer": 3,
      "byteLength": 94576,
      "target": 34962
    },
    {
      "buffer": 4,
      "byteLength": 47288,
      "target": 34962
    },
    {
      "buffer": 0,
      "byteLength": 70932,
      "target": 34962
    },
    {
      "buffer": 5,
      "byteLength": 744,
      "target": 34963
    },
    {
      "buffer": 2,
      "byteLength": 70932,
      "target": 34962
    },
    {
      "buffer": 3,
      "byteLength": 94576,
      "target": 34962
    },
    {
      "buffer": 4,
      "byteLength": 47288,
      "target": 34962
    },
    {
      "buffer": 6,
      "byteLength": 18600,
      "target": 34962
    },
    {
      "buffer": 7,
      "byteLength": 10656,
      "target": 34963
    },
    {
      "buffer": 8,
      "byteLength": 18600,
      "target": 34962
    },
    {
      "buffer": 9,
      "byteLength": 24800,
      "target": 34962
    },
    {
      "buffer": 10,
      "byteLength": 12400,
      "target": 34962
    },
    {
      "buffer": 6,
      "byteLength": 18600,
      "target": 34962
    },
    {
      "buffer": 11,
      "byteLength": 498,
      "target": 34963
    },
    {
      "buffer": 8,
      "byteLength": 18600,
      "target": 34962
    },
    {
      "buffer": 9,
      "byteLength": 24800,
      "target": 34962
    },
    {
      "buffer": 10,
      "byteLength": 12400,
      "target": 34962
    },
    {
      "buffer": 12,
      "byteLength": 13128,
      "target": 34962
    },
    {
      "buffer": 13,
      "byteLength": 10412,
      "target": 34963
    },
    {
      "buffer": 14,
      "byteLength": 13128,
      "target": 34962
    },
    {
      "buffer": 15,
      "byteLength": 17504,
      "target": 34962
    },
    {
      "buffer": 16,
      "byteLength": 8752,
      "target": 34962
    },
    {
      "buffer": 12,
      "byteLength": 13128,
      "target": 34962
    },
    {
      "buffer": 17,
      "byteLength": 354,
      "target": 34963
    },
    {
      "buffer": 14,
      "byteLength": 13128,
      "target": 34962
    },
    {
      "buffer": 15,
      "byteLength": 17504,
      "target": 34962
    },
    {
      "buffer": 16,
      "byteLength": 8752,
      "target": 34962
    }
  ],
  "buffers": [
    {
      "byteLength": 70932,
      "uri": "data:application/octet-stream;base64,"
    },
    {
      "byteLength": 50600,
      "uri": "data:application/octet-stream;base64,"
    },
    {
      "byteLength": 70932,
      "uri": "data:application/octet-stream;base64,"
    },
    {
      "byteLength": 94576,
      "uri": "data:application/octet-stream;base64,"
    },
    {
      "byteLength": 47288,
      "uri": "data:application/octet-stream;base64,"
    },
    {
      "byteLength": 744,
      "uri": "data:application/octet-stream;base64,"
    },
    {
      "byteLength": 18600,
      "uri": "data:application/octet-stream;base64,"
    },
    {
      "byteLength": 10656,
      "uri": "data:application/octet-stream;base64,"
    },
    {
      "byteLength": 18600,
      "uri": "data:application/octet-stream;base64,"
    },
    {
      "byteLength": 24800,
      "uri": "data:application/octet-stream;base64,"
    },
    {
      "byteLength": 12400,
      "uri": "data:application/octet-stream;base64,"
    },
    {
      "byteLength": 498,
      "uri": "data:application/octet-stream;base64,"
    },
    {
      "byteLength": 13128,
      "uri": "data:application/octet-stream;base64,"
    },
    {
      "byteLength": 10412,
      "uri": "data:application/octet-stream;base64,"
    },
    {
      "byteLength": 13128,
      "uri": "data:application/octet-stream;base64,"
    },
    {
      "byteLength": 17504,
      "uri": "data:application/octet-stream;base64,"
    },
    {
      "byteLength": 8752,
      "uri": "data:application/octet-stream;base64,"
    },
    {
      "byteLength": 354,
      "uri": "data:application/octet-stream;base64,"
    }
  ],
  "materials": [
    {
      "doubleSided": true,
      "pbrMetallicRoughness": {
        "baseColorFactor": [
          0.5882350206375122,
          0.5882350206375122,
          0.5882350206375122,
          1.0
        ]
      }
    }
  ],
  "meshes": [
    {
      "name": "defaultMaterial",
      "primitives": [
        {
          "attributes": {
            "NORMAL": 2,
            "POSITION": 0,
            "TANGENT": 3,
            "TEXCOORD_0": 4
          },
          "indices": 1,
          "material": 0,
          "mode": 5
        },
        {
          "attributes": {
            "NORMAL": 7,
            "POSITION": 5,
            "TANGENT": 8,
            "TEXCOORD_0": 9
          },
          "indices": 6,
          "material": 0,
          "mode": 4
        }
      ]
    },
    {
      "name": "defaultMaterial",
      "primitives": [
        {
          "attributes": {
            "NORMAL": 12,
            "POSITION": 10,
            "TANGENT": 13,
            "TEXCOORD_0": 14
          },
          "indices": 11,
          "material": 0,
          "mode": 5
        },
        {
          "attributes": {
            "NORMAL": 17,
            "POSITION": 15,
            "TANGENT": 18,
            "TEXCOORD_0": 19
          },
          "indices": 16,
          "material": 0,
          "mode": 4
        }
      ]
    },
    {
      "name": "defaultMaterial",
      "primitives": [
        {
          "attributes": {
            "NORMAL": 22,
            "POSITION": 20,
            "TANGENT": 23,
            "TEXCOORD_0": 24
          },
          "indices": 21,
          "material": 0,
          "mode": 5
        },
        {
          "attributes": {
            "NORMAL": 27,
            "POSITION": 25,
            "TANGENT": 28,
            "TEXCOORD_0": 29
          },
          "indices": 26,
          "material": 0,
          "mode": 4
        }
      ]
    }
  ],
  "nodes": [
    {
      "mesh": 0,
      "name": "defaultMaterial"
    },
    {
      "children": [
        0
      ],
      "name": "balai1"
    },
    {
      "mesh": 1,
      "name": "defaultMaterial"
    },
    {
      "children": [
        2
      ],
      "name": "Box001"
    },
    {
      "mesh": 2,
      "name": "defaultMaterial"
    },
    {
      "children": [
        4
      ],
      "name": "Object002"
    },
    {
      "children": [
        1,
        3,
        5
      ],
      "name": "Collada visual scene group",
      "rotation": [
        2.1855700111022284e-08,
        0.0,
        0.0,
        0.9999999999999998
      ],
      "scale": [
        1.0,
        1.0,
        1.0
      ],
      "translation": [
        0.0,
        0.0,
        0.0
      ]
    }
  ],
  "scene": 0,
  "scenes": [
    {
      "nodes": [
        6
      ]
    }
  ]
}
